<svg width="75" height="15" viewBox="0 0 75 15" fill="none" xmlns="http://www.w3.org/2000/svg">
<path d="M74.9632 4.26874C75.1116 3.73677 74.8007 3.18521 74.2687 3.03679L65.5998 0.618121C65.0679 0.4697 64.5163 0.780625 64.3679 1.31259C64.2195 1.84456 64.5304 2.39612 65.0623 2.54455L72.768 4.69447L70.6181 12.4002C70.4697 12.9321 70.7806 13.4837 71.3126 13.6321C71.8446 13.7805 72.3961 13.4696 72.5445 12.9377L74.9632 4.26874ZM39 13.5L38.9832 12.5001L39 13.5ZM0.514679 4.87434C7.30252 8.64208 13.0317 11.1237 19.0316 12.6236C25.0315 14.1236 31.2544 14.6301 39.0168 14.4999L38.9832 12.5001C31.327 12.6286 25.2914 12.127 19.5167 10.6833C13.742 9.23968 8.1804 6.84192 1.48532 3.12566L0.514679 4.87434ZM39.0168 14.4999C46.4128 14.3758 52.0508 13.8031 57.4721 12.3316C62.8935 10.8601 68.0473 8.50358 74.4911 4.87112L73.5089 3.12888C67.1377 6.72045 62.1459 8.99061 56.9482 10.4014C51.7506 11.8122 46.296 12.3775 38.9832 12.5001L39.0168 14.4999Z" fill="#880D1E"/>
</svg>
