<svg width="616" height="400" viewBox="0 0 616 400" fill="none" xmlns="http://www.w3.org/2000/svg">
<circle cx="308.5" cy="207.5" r="90" stroke="#880D1E" stroke-width="45"/>
<path d="M615.64 219.52C615.64 227.84 612.44 235.2 606.04 241.6C599.64 248 591.427 252.16 581.4 254.08L567.32 320H522.84L546.84 251.2L540.76 249.28C532.227 246.933 525.507 245.227 520.6 244.16C515.693 243.093 510.467 242.56 504.92 242.56C490.84 242.56 479.32 244.8 470.36 249.28H469.08L462.36 236.8V235.2C484.333 208.96 501.507 185.387 513.88 164.48C526.253 143.573 532.44 123.627 532.44 104.64C532.44 98.24 531.587 91.6267 529.88 84.8C534.36 83.3067 539.693 82.56 545.88 82.56C555.48 82.56 562.947 85.2267 568.28 90.56C573.613 95.68 576.28 102.293 576.28 110.4C576.28 120 572.013 131.413 563.48 144.64C555.16 157.653 544.813 170.667 532.44 183.68C520.28 196.48 508.333 207.573 496.6 216.96L496.92 217.92C500.76 216.427 505.24 215.147 510.36 214.08C515.693 212.8 520.707 212.16 525.4 212.16C530.733 212.16 537.133 212.8 544.6 214.08C552.067 215.36 556.76 216.213 558.68 216.64L584.6 142.08H605.08L589.4 216.32C596.867 213.547 603.587 208.533 609.56 201.28L610.52 201.92C613.933 207.893 615.64 213.76 615.64 219.52Z" fill="#880D1E"/>
<path d="M153.64 219.52C153.64 227.84 150.44 235.2 144.04 241.6C137.64 248 129.427 252.16 119.4 254.08L105.32 320H60.84L84.84 251.2L78.76 249.28C70.2267 246.933 63.5067 245.227 58.6 244.16C53.6933 243.093 48.4667 242.56 42.92 242.56C28.84 242.56 17.32 244.8 8.36 249.28H7.08L0.36 236.8V235.2C22.3333 208.96 39.5067 185.387 51.88 164.48C64.2533 143.573 70.44 123.627 70.44 104.64C70.44 98.24 69.5867 91.6267 67.88 84.8C72.36 83.3067 77.6933 82.56 83.88 82.56C93.48 82.56 100.947 85.2267 106.28 90.56C111.613 95.68 114.28 102.293 114.28 110.4C114.28 120 110.013 131.413 101.48 144.64C93.16 157.653 82.8133 170.667 70.44 183.68C58.28 196.48 46.3333 207.573 34.6 216.96L34.92 217.92C38.76 216.427 43.24 215.147 48.36 214.08C53.6933 212.8 58.7067 212.16 63.4 212.16C68.7333 212.16 75.1333 212.8 82.6 214.08C90.0667 215.36 94.76 216.213 96.68 216.64L122.6 142.08H143.08L127.4 216.32C134.867 213.547 141.587 208.533 147.56 201.28L148.52 201.92C151.933 207.893 153.64 213.76 153.64 219.52Z" fill="#880D1E"/>
</svg>
