<svg width="793" height="161" viewBox="0 0 793 161" fill="none" xmlns="http://www.w3.org/2000/svg">
<path d="M21.64 138.324C17.6933 138.324 14.2266 138.004 11.24 137.364C8.25328 136.724 5.69328 135.177 3.55995 132.724C1.31995 130.271 0.199951 126.484 0.199951 121.364C0.199951 110.377 4.73328 95.0173 13.8 75.284C22.9733 55.444 34.12 37.9507 47.24 22.804C60.4666 7.65732 73 0.0839844 84.84 0.0839844C89.96 0.0839844 94.1733 0.830651 97.4799 2.32398L72.36 120.084H49.32L72.36 11.444C64.68 15.4973 56.7333 24.9907 48.52 39.924C40.3066 54.7507 33.3733 70.8573 27.72 88.244C22.1733 105.631 19.4 119.337 19.4 129.364C19.4 133.417 20.1466 136.404 21.64 138.324Z" fill="#F2F1ED"/>
<path d="M115.692 121.044C107.799 121.044 101.666 119.017 97.2924 114.964C92.9191 110.804 90.7325 104.351 90.7325 95.604C90.7325 88.244 92.1725 80.1373 95.0525 71.284C97.9324 62.4307 102.626 54.804 109.132 48.404C115.639 41.8973 123.906 38.644 133.932 38.644C145.666 38.644 151.532 43.764 151.532 54.004C151.532 59.9773 149.826 65.4707 146.412 70.484C142.999 75.4973 138.466 79.5507 132.812 82.644C127.159 85.6307 121.132 87.3373 114.732 87.764C114.519 90.964 114.412 93.0973 114.412 94.164C114.412 99.3907 115.319 102.964 117.132 104.884C118.946 106.697 121.879 107.604 125.932 107.604C131.692 107.604 136.599 106.271 140.652 103.604C144.812 100.937 149.346 96.884 154.252 91.444H159.692C147.852 111.177 133.186 121.044 115.692 121.044ZM116.012 80.084C119.959 79.8707 123.692 78.484 127.212 75.924C130.839 73.364 133.719 70.1107 135.852 66.164C138.092 62.2173 139.212 58.0573 139.212 53.684C139.212 49.3107 137.879 47.124 135.212 47.124C131.372 47.124 127.586 50.484 123.852 57.204C120.226 63.924 117.612 71.5507 116.012 80.084Z" fill="#F2F1ED"/>
<path d="M177.099 121.044C169.205 121.044 163.072 119.017 158.699 114.964C154.325 110.804 152.139 104.351 152.139 95.604C152.139 88.244 153.579 80.1373 156.459 71.284C159.445 62.4307 164.139 54.804 170.539 48.404C177.045 41.8973 185.259 38.644 195.179 38.644C201.579 38.644 206.112 40.0307 208.779 42.804C211.552 45.5773 212.939 49.0973 212.939 53.364C212.939 57.0973 212.139 59.9773 210.539 62.004C208.939 64.0307 206.912 65.044 204.459 65.044C202.645 65.044 200.779 64.404 198.859 63.124C200.139 59.604 200.779 56.4573 200.779 53.684C200.779 51.6573 200.405 50.0573 199.659 48.884C198.912 47.7107 197.792 47.124 196.299 47.124C193.099 47.124 189.899 49.7373 186.699 54.964C183.499 60.1907 180.885 66.5373 178.859 74.004C176.832 81.4707 175.819 88.1907 175.819 94.164C175.819 99.3907 176.725 102.964 178.539 104.884C180.352 106.697 183.285 107.604 187.339 107.604C193.099 107.604 198.005 106.271 202.059 103.604C206.219 100.937 210.752 96.884 215.659 91.444H221.099C209.259 111.177 194.592 121.044 177.099 121.044Z" fill="#F2F1ED"/>
<path d="M273.705 121.044C267.625 121.044 262.932 119.444 259.625 116.244C256.425 112.937 254.825 108.884 254.825 104.084C254.825 100.991 256.052 93.524 258.505 81.684H240.745L232.585 120.084H209.545L226.505 40.084H249.545L242.665 72.084H260.585L267.785 40.084H289.225L280.745 79.764C279.678 84.3507 278.772 88.3507 278.025 91.764C277.278 95.1773 276.905 97.524 276.905 98.804C276.905 103.284 279.038 105.524 283.305 105.524C286.292 105.524 288.692 104.511 290.505 102.484C292.318 100.457 294.398 96.7773 296.745 91.444H303.465C296.745 111.177 286.825 121.044 273.705 121.044Z" fill="#F2F1ED"/>
<path d="M320.079 120.724C312.185 120.724 305.945 118.697 301.359 114.644C296.772 110.591 294.479 104.191 294.479 95.444C294.479 88.1907 295.972 80.1373 298.959 71.284C301.945 62.4307 306.745 54.804 313.359 48.404C319.972 41.8973 328.292 38.644 338.319 38.644C351.972 38.644 358.799 47.1773 358.799 64.244V64.404C359.119 64.5107 359.705 64.564 360.559 64.564C364.079 64.564 368.132 63.6573 372.719 61.844C377.305 59.924 381.465 57.6307 385.199 54.964L386.639 59.284C383.545 62.5907 379.492 65.4173 374.479 67.764C369.572 70.004 364.185 71.604 358.319 72.564C357.465 82.2707 355.279 90.7507 351.759 98.004C348.239 105.257 343.705 110.857 338.159 114.804C332.612 118.751 326.585 120.724 320.079 120.724ZM326.479 106.324C329.039 106.324 331.599 104.884 334.159 102.004C336.719 99.0173 338.959 95.0173 340.879 90.004C342.799 84.884 344.185 79.2307 345.039 73.044C342.159 72.404 340.719 70.164 340.719 66.324C340.719 61.9507 342.372 59.0707 345.679 57.684C345.465 54.164 344.932 51.764 344.079 50.484C343.225 49.0973 341.732 48.404 339.599 48.404C336.079 48.404 332.665 50.964 329.359 56.084C326.052 61.204 323.385 67.3373 321.359 74.484C319.332 81.6307 318.319 87.924 318.319 93.364C318.319 98.484 318.905 101.951 320.079 103.764C321.252 105.471 323.385 106.324 326.479 106.324Z" fill="#F2F1ED"/>
<path d="M389.591 121.044C381.805 121.044 375.725 119.017 371.351 114.964C366.978 110.804 364.791 104.351 364.791 95.604C364.791 88.244 366.231 80.1373 369.111 71.284C371.991 62.4307 376.685 54.804 383.191 48.404C389.698 41.8973 397.965 38.644 407.991 38.644C419.725 38.644 425.591 43.764 425.591 54.004C425.591 59.9773 423.885 65.4707 420.471 70.484C417.058 75.4973 412.525 79.5507 406.871 82.644C401.218 85.6307 395.191 87.3373 388.791 87.764C388.578 90.1107 388.471 91.7107 388.471 92.564C388.471 101.417 391.778 105.844 398.391 105.844C401.378 105.844 404.578 105.044 407.991 103.444C411.405 101.844 414.498 99.8173 417.271 97.364C414.391 113.151 405.165 121.044 389.591 121.044ZM389.911 80.084C393.965 79.9773 397.751 78.644 401.271 76.084C404.898 73.524 407.778 70.2707 409.911 66.324C412.151 62.2707 413.271 58.0573 413.271 53.684C413.271 49.3107 411.938 47.124 409.271 47.124C405.538 47.124 401.805 50.5373 398.071 57.364C394.445 64.084 391.725 71.6573 389.911 80.084Z" fill="#F2F1ED"/>
<path d="M541.432 160.084C536.312 160.084 532.046 158.751 528.632 156.084C525.219 153.417 523.512 149.577 523.512 144.564C523.512 134.217 531.886 126.377 548.632 121.044C548.312 109.737 544.472 104.084 537.112 104.084H532.152L534.232 94.484H538.872C542.606 94.484 545.966 93.2573 548.952 90.804C551.939 88.3507 554.286 85.044 555.992 80.884C557.699 76.6173 558.552 71.9773 558.552 66.964C558.552 63.2307 557.859 60.0307 556.472 57.364C555.086 54.5907 552.739 53.204 549.432 53.204C546.339 53.204 543.299 54.2707 540.312 56.404C537.432 58.4307 533.646 61.684 528.952 66.164C524.259 70.5373 521.966 72.6707 522.072 72.564H521.912C521.059 82.2707 518.872 90.7507 515.352 98.004C511.832 105.257 507.299 110.857 501.752 114.804C496.206 118.751 490.179 120.724 483.672 120.724C475.779 120.724 469.539 118.697 464.952 114.644C460.366 110.591 458.072 104.191 458.072 95.444C458.072 88.1907 459.566 80.1373 462.552 71.284C465.539 62.4307 470.339 54.804 476.952 48.404C483.566 41.8973 491.886 38.644 501.912 38.644C515.246 38.644 522.072 46.9107 522.392 63.444C522.499 63.3373 523.672 62.004 525.912 59.444C530.072 54.644 533.592 50.9107 536.472 48.244C539.352 45.4707 542.659 43.1773 546.392 41.364C550.126 39.5507 554.339 38.644 559.032 38.644C565.966 38.644 571.619 40.9373 575.992 45.524C580.472 50.004 582.712 56.1907 582.712 64.084C582.712 70.484 581.166 76.2973 578.072 81.524C575.086 86.644 571.619 90.804 567.672 94.004C563.726 97.0973 560.472 98.9107 557.912 99.444C560.686 100.404 563.299 102.324 565.752 105.204C568.312 108.084 570.072 111.497 571.032 115.444C577.112 113.631 581.859 111.017 585.272 107.604C588.792 104.191 591.779 98.804 594.232 91.444H600.952C598.072 101.151 594.072 108.244 588.952 112.724C583.832 117.204 578.073 120.244 571.672 121.844C571.459 133.791 568.579 143.124 563.032 149.844C557.592 156.671 550.392 160.084 541.432 160.084ZM490.072 106.324C492.632 106.324 495.192 104.884 497.752 102.004C500.312 99.0173 502.552 95.0173 504.472 90.004C506.392 84.884 507.779 79.2307 508.632 73.044C505.752 72.404 504.312 70.164 504.312 66.324C504.312 61.9507 505.966 59.0707 509.272 57.684C509.059 54.164 508.526 51.764 507.672 50.484C506.819 49.0973 505.326 48.404 503.192 48.404C499.672 48.404 496.259 50.964 492.952 56.084C489.646 61.204 486.979 67.3373 484.952 74.484C482.926 81.6307 481.912 87.924 481.912 93.364C481.912 98.484 482.499 101.951 483.672 103.764C484.846 105.471 486.979 106.324 490.072 106.324ZM537.752 147.604C539.992 147.604 542.126 145.737 544.152 142.004C546.179 138.271 547.512 133.844 548.152 128.724C537.592 132.351 532.312 136.884 532.312 142.324C532.312 143.924 532.739 145.204 533.592 146.164C534.552 147.124 535.939 147.604 537.752 147.604Z" fill="#F2F1ED"/>
<path d="M617.099 121.044C609.205 121.044 603.072 119.017 598.699 114.964C594.325 110.804 592.139 104.351 592.139 95.604C592.139 88.244 593.579 80.1373 596.459 71.284C599.339 62.4307 604.032 54.804 610.539 48.404C617.045 41.8973 625.312 38.644 635.339 38.644C647.072 38.644 652.939 43.764 652.939 54.004C652.939 59.9773 651.232 65.4707 647.819 70.484C644.405 75.4973 639.872 79.5507 634.219 82.644C628.565 85.6307 622.539 87.3373 616.139 87.764C615.925 90.964 615.819 93.0973 615.819 94.164C615.819 99.3907 616.725 102.964 618.539 104.884C620.352 106.697 623.285 107.604 627.339 107.604C633.099 107.604 638.005 106.271 642.059 103.604C646.219 100.937 650.752 96.884 655.659 91.444H661.099C649.259 111.177 634.592 121.044 617.099 121.044ZM617.419 80.084C621.365 79.8707 625.099 78.484 628.619 75.924C632.245 73.364 635.125 70.1107 637.259 66.164C639.499 62.2173 640.619 58.0573 640.619 53.684C640.619 49.3107 639.285 47.124 636.619 47.124C632.779 47.124 628.992 50.484 625.259 57.204C621.632 63.924 619.019 71.5507 617.419 80.084Z" fill="#F2F1ED"/>
<path d="M667.785 34.164H690.825L688.265 46.164C693.598 41.5773 699.838 39.284 706.985 39.284C712.958 39.284 717.705 41.2573 721.225 45.204C724.745 49.1507 726.505 55.604 726.505 64.564C726.505 72.9907 725.278 81.524 722.825 90.164C720.372 98.6973 716.212 106.004 710.345 112.084C704.478 118.057 696.745 121.044 687.145 121.044C680.318 121.044 675.785 119.124 673.545 115.284L665.225 154.324L641.065 160.084L667.785 34.164ZM682.185 107.124C687.305 107.124 691.518 104.724 694.825 99.924C698.238 95.124 700.692 89.4173 702.185 82.804C703.785 76.084 704.585 69.844 704.585 64.084C704.585 55.2307 701.918 50.804 696.585 50.804C694.665 50.804 692.692 51.4973 690.665 52.884C688.745 54.2707 687.038 56.1907 685.545 58.644L676.105 103.444C676.958 105.897 678.985 107.124 682.185 107.124Z" fill="#F2F1ED"/>
<path d="M753.829 120.724C745.935 120.724 739.695 118.697 735.109 114.644C730.522 110.591 728.229 104.191 728.229 95.444C728.229 88.1907 729.722 80.1373 732.709 71.284C735.695 62.4307 740.495 54.804 747.109 48.404C753.722 41.8973 762.042 38.644 772.069 38.644C785.722 38.644 792.549 47.2307 792.549 64.404C792.549 75.0707 790.895 84.724 787.589 93.364C784.282 101.897 779.642 108.617 773.669 113.524C767.802 118.324 761.189 120.724 753.829 120.724ZM760.229 106.324C763.855 106.324 767.109 103.871 769.989 98.964C772.975 93.9507 775.269 87.764 776.869 80.404C778.575 72.9373 779.429 65.8973 779.429 59.284C779.429 55.5507 779.002 52.8307 778.149 51.124C777.295 49.3107 775.695 48.404 773.349 48.404C769.829 48.404 766.415 50.964 763.109 56.084C759.802 61.204 757.135 67.3373 755.109 74.484C753.082 81.6307 752.069 87.924 752.069 93.364C752.069 98.484 752.655 101.951 753.829 103.764C755.002 105.471 757.135 106.324 760.229 106.324Z" fill="#F2F1ED"/>
</svg>
