<svg width="149" height="31" viewBox="0 0 149 31" fill="none" xmlns="http://www.w3.org/2000/svg">
<path d="M4.11998 26.42C3.37998 26.42 2.72998 26.36 2.16998 26.24C1.60998 26.12 1.12998 25.83 0.729976 25.37C0.309976 24.91 0.0999756 24.2 0.0999756 23.24C0.0999756 21.18 0.949976 18.3 2.64998 14.6C4.36998 10.88 6.45998 7.6 8.91998 4.76C11.4 1.92 13.75 0.5 15.97 0.5C16.93 0.5 17.72 0.64 18.34 0.92L13.63 23H9.30998L13.63 2.63C12.19 3.39 10.7 5.17 9.15998 7.97C7.61998 10.75 6.31998 13.77 5.25998 17.03C4.21998 20.29 3.69998 22.86 3.69998 24.74C3.69998 25.5 3.83998 26.06 4.11998 26.42Z" fill="#880D1E"/>
<path d="M21.7548 23.18C20.2748 23.18 19.1248 22.8 18.3048 22.04C17.4848 21.26 17.0748 20.05 17.0748 18.41C17.0748 17.03 17.3448 15.51 17.8848 13.85C18.4248 12.19 19.3048 10.76 20.5248 9.56C21.7448 8.34 23.2948 7.73 25.1748 7.73C27.3748 7.73 28.4748 8.69 28.4748 10.61C28.4748 11.73 28.1548 12.76 27.5148 13.7C26.8748 14.64 26.0248 15.4 24.9648 15.98C23.9048 16.54 22.7748 16.86 21.5748 16.94C21.5348 17.54 21.5148 17.94 21.5148 18.14C21.5148 19.12 21.6848 19.79 22.0248 20.15C22.3648 20.49 22.9148 20.66 23.6748 20.66C24.7548 20.66 25.6748 20.41 26.4348 19.91C27.2148 19.41 28.0648 18.65 28.9848 17.63H30.0048C27.7848 21.33 25.0348 23.18 21.7548 23.18ZM21.8148 15.5C22.5548 15.46 23.2548 15.2 23.9148 14.72C24.5948 14.24 25.1348 13.63 25.5348 12.89C25.9548 12.15 26.1648 11.37 26.1648 10.55C26.1648 9.73 25.9148 9.32 25.4148 9.32C24.6948 9.32 23.9848 9.95 23.2848 11.21C22.6048 12.47 22.1148 13.9 21.8148 15.5Z" fill="#880D1E"/>
<path d="M33.2685 23.18C31.7885 23.18 30.6385 22.8 29.8185 22.04C28.9985 21.26 28.5885 20.05 28.5885 18.41C28.5885 17.03 28.8585 15.51 29.3985 13.85C29.9585 12.19 30.8385 10.76 32.0385 9.56C33.2585 8.34 34.7985 7.73 36.6585 7.73C37.8585 7.73 38.7085 7.99 39.2085 8.51C39.7285 9.03 39.9885 9.69 39.9885 10.49C39.9885 11.19 39.8385 11.73 39.5385 12.11C39.2385 12.49 38.8585 12.68 38.3985 12.68C38.0585 12.68 37.7085 12.56 37.3485 12.32C37.5885 11.66 37.7085 11.07 37.7085 10.55C37.7085 10.17 37.6385 9.87 37.4985 9.65C37.3585 9.43 37.1485 9.32 36.8685 9.32C36.2685 9.32 35.6685 9.81 35.0685 10.79C34.4685 11.77 33.9785 12.96 33.5985 14.36C33.2185 15.76 33.0285 17.02 33.0285 18.14C33.0285 19.12 33.1985 19.79 33.5385 20.15C33.8785 20.49 34.4285 20.66 35.1885 20.66C36.2685 20.66 37.1885 20.41 37.9485 19.91C38.7285 19.41 39.5785 18.65 40.4985 17.63H41.5185C39.2985 21.33 36.5485 23.18 33.2685 23.18Z" fill="#880D1E"/>
<path d="M51.3822 23.18C50.2422 23.18 49.3622 22.88 48.7422 22.28C48.1422 21.66 47.8422 20.9 47.8422 20C47.8422 19.42 48.0722 18.02 48.5322 15.8H45.2022L43.6722 23H39.3522L42.5322 8H46.8522L45.5622 14H48.9222L50.2722 8H54.2922L52.7022 15.44C52.5022 16.3 52.3322 17.05 52.1922 17.69C52.0522 18.33 51.9822 18.77 51.9822 19.01C51.9822 19.85 52.3822 20.27 53.1822 20.27C53.7422 20.27 54.1922 20.08 54.5322 19.7C54.8722 19.32 55.2622 18.63 55.7022 17.63H56.9622C55.7022 21.33 53.8422 23.18 51.3822 23.18Z" fill="#880D1E"/>
<path d="M60.0772 23.12C58.5972 23.12 57.4272 22.74 56.5672 21.98C55.7072 21.22 55.2772 20.02 55.2772 18.38C55.2772 17.02 55.5572 15.51 56.1172 13.85C56.6772 12.19 57.5772 10.76 58.8172 9.56C60.0572 8.34 61.6172 7.73 63.4972 7.73C66.0572 7.73 67.3372 9.33 67.3372 12.53V12.56C67.3972 12.58 67.5072 12.59 67.6672 12.59C68.3272 12.59 69.0872 12.42 69.9472 12.08C70.8072 11.72 71.5872 11.29 72.2872 10.79L72.5572 11.6C71.9772 12.22 71.2172 12.75 70.2772 13.19C69.3572 13.61 68.3472 13.91 67.2472 14.09C67.0872 15.91 66.6772 17.5 66.0172 18.86C65.3572 20.22 64.5072 21.27 63.4672 22.01C62.4272 22.75 61.2972 23.12 60.0772 23.12ZM61.2772 20.42C61.7572 20.42 62.2372 20.15 62.7172 19.61C63.1972 19.05 63.6172 18.3 63.9772 17.36C64.3372 16.4 64.5972 15.34 64.7572 14.18C64.2172 14.06 63.9472 13.64 63.9472 12.92C63.9472 12.1 64.2572 11.56 64.8772 11.3C64.8372 10.64 64.7372 10.19 64.5772 9.95C64.4172 9.69 64.1372 9.56 63.7372 9.56C63.0772 9.56 62.4372 10.04 61.8172 11C61.1972 11.96 60.6972 13.11 60.3172 14.45C59.9372 15.79 59.7472 16.97 59.7472 17.99C59.7472 18.95 59.8572 19.6 60.0772 19.94C60.2972 20.26 60.6972 20.42 61.2772 20.42Z" fill="#880D1E"/>
<path d="M73.1108 23.18C71.6508 23.18 70.5108 22.8 69.6908 22.04C68.8708 21.26 68.4608 20.05 68.4608 18.41C68.4608 17.03 68.7308 15.51 69.2708 13.85C69.8108 12.19 70.6908 10.76 71.9108 9.56C73.1308 8.34 74.6808 7.73 76.5608 7.73C78.7608 7.73 79.8608 8.69 79.8608 10.61C79.8608 11.73 79.5408 12.76 78.9008 13.7C78.2608 14.64 77.4108 15.4 76.3508 15.98C75.2908 16.54 74.1608 16.86 72.9608 16.94C72.9208 17.38 72.9008 17.68 72.9008 17.84C72.9008 19.5 73.5208 20.33 74.7608 20.33C75.3208 20.33 75.9208 20.18 76.5608 19.88C77.2008 19.58 77.7808 19.2 78.3008 18.74C77.7608 21.7 76.0308 23.18 73.1108 23.18ZM73.1708 15.5C73.9308 15.48 74.6408 15.23 75.3008 14.75C75.9808 14.27 76.5208 13.66 76.9208 12.92C77.3408 12.16 77.5508 11.37 77.5508 10.55C77.5508 9.73 77.3008 9.32 76.8008 9.32C76.1008 9.32 75.4008 9.96 74.7008 11.24C74.0208 12.5 73.5108 13.92 73.1708 15.5Z" fill="#880D1E"/>
<path d="M101.581 30.5C100.621 30.5 99.8211 30.25 99.1811 29.75C98.5411 29.25 98.2211 28.53 98.2211 27.59C98.2211 25.65 99.7911 24.18 102.931 23.18C102.871 21.06 102.151 20 100.771 20H99.8411L100.231 18.2H101.101C101.801 18.2 102.431 17.97 102.991 17.51C103.551 17.05 103.991 16.43 104.311 15.65C104.631 14.85 104.791 13.98 104.791 13.04C104.791 12.34 104.661 11.74 104.401 11.24C104.141 10.72 103.701 10.46 103.081 10.46C102.501 10.46 101.931 10.66 101.371 11.06C100.831 11.44 100.121 12.05 99.2411 12.89C98.3611 13.71 97.9311 14.11 97.9511 14.09H97.9211C97.7611 15.91 97.3511 17.5 96.6911 18.86C96.0311 20.22 95.1811 21.27 94.1411 22.01C93.1011 22.75 91.9711 23.12 90.7511 23.12C89.2711 23.12 88.1011 22.74 87.2411 21.98C86.3811 21.22 85.9511 20.02 85.9511 18.38C85.9511 17.02 86.2311 15.51 86.7911 13.85C87.3511 12.19 88.2511 10.76 89.4911 9.56C90.7311 8.34 92.2911 7.73 94.1711 7.73C96.6711 7.73 97.9511 9.28 98.0111 12.38C98.0311 12.36 98.2511 12.11 98.6711 11.63C99.4511 10.73 100.111 10.03 100.651 9.53C101.191 9.01 101.811 8.58 102.511 8.24C103.211 7.9 104.001 7.73 104.881 7.73C106.181 7.73 107.241 8.16 108.061 9.02C108.901 9.86 109.321 11.02 109.321 12.5C109.321 13.7 109.031 14.79 108.451 15.77C107.891 16.73 107.241 17.51 106.501 18.11C105.761 18.69 105.151 19.03 104.671 19.13C105.191 19.31 105.681 19.67 106.141 20.21C106.621 20.75 106.951 21.39 107.131 22.13C108.271 21.79 109.161 21.3 109.801 20.66C110.461 20.02 111.021 19.01 111.481 17.63H112.741C112.201 19.45 111.451 20.78 110.491 21.62C109.531 22.46 108.451 23.03 107.251 23.33C107.211 25.57 106.671 27.32 105.631 28.58C104.611 29.86 103.261 30.5 101.581 30.5ZM91.9511 20.42C92.4311 20.42 92.9111 20.15 93.3911 19.61C93.8711 19.05 94.2911 18.3 94.6511 17.36C95.0111 16.4 95.2711 15.34 95.4311 14.18C94.8911 14.06 94.6211 13.64 94.6211 12.92C94.6211 12.1 94.9311 11.56 95.5511 11.3C95.5111 10.64 95.4111 10.19 95.2511 9.95C95.0911 9.69 94.8111 9.56 94.4111 9.56C93.7511 9.56 93.1111 10.04 92.4911 11C91.8711 11.96 91.3711 13.11 90.9911 14.45C90.6111 15.79 90.4211 16.97 90.4211 17.99C90.4211 18.95 90.5311 19.6 90.7511 19.94C90.9711 20.26 91.3711 20.42 91.9511 20.42ZM100.891 28.16C101.311 28.16 101.711 27.81 102.091 27.11C102.471 26.41 102.721 25.58 102.841 24.62C100.861 25.3 99.8711 26.15 99.8711 27.17C99.8711 27.47 99.9511 27.71 100.111 27.89C100.291 28.07 100.551 28.16 100.891 28.16Z" fill="#880D1E"/>
<path d="M115.768 23.18C114.288 23.18 113.138 22.8 112.318 22.04C111.498 21.26 111.088 20.05 111.088 18.41C111.088 17.03 111.358 15.51 111.898 13.85C112.438 12.19 113.318 10.76 114.538 9.56C115.758 8.34 117.308 7.73 119.188 7.73C121.388 7.73 122.488 8.69 122.488 10.61C122.488 11.73 122.168 12.76 121.528 13.7C120.888 14.64 120.038 15.4 118.978 15.98C117.918 16.54 116.788 16.86 115.588 16.94C115.548 17.54 115.528 17.94 115.528 18.14C115.528 19.12 115.698 19.79 116.038 20.15C116.378 20.49 116.928 20.66 117.688 20.66C118.768 20.66 119.688 20.41 120.448 19.91C121.228 19.41 122.078 18.65 122.998 17.63H124.018C121.798 21.33 119.048 23.18 115.768 23.18ZM115.828 15.5C116.568 15.46 117.268 15.2 117.928 14.72C118.608 14.24 119.148 13.63 119.548 12.89C119.968 12.15 120.178 11.37 120.178 10.55C120.178 9.73 119.928 9.32 119.428 9.32C118.708 9.32 117.998 9.95 117.298 11.21C116.618 12.47 116.128 13.9 115.828 15.5Z" fill="#880D1E"/>
<path d="M125.272 6.89H129.592L129.112 9.14C130.112 8.28 131.282 7.85 132.622 7.85C133.742 7.85 134.632 8.22 135.292 8.96C135.952 9.7 136.282 10.91 136.282 12.59C136.282 14.17 136.052 15.77 135.592 17.39C135.132 18.99 134.352 20.36 133.252 21.5C132.152 22.62 130.702 23.18 128.902 23.18C127.622 23.18 126.772 22.82 126.352 22.1L124.792 29.42L120.262 30.5L125.272 6.89ZM127.972 20.57C128.932 20.57 129.722 20.12 130.342 19.22C130.982 18.32 131.442 17.25 131.722 16.01C132.022 14.75 132.172 13.58 132.172 12.5C132.172 10.84 131.672 10.01 130.672 10.01C130.312 10.01 129.942 10.14 129.562 10.4C129.202 10.66 128.882 11.02 128.602 11.48L126.832 19.88C126.992 20.34 127.372 20.57 127.972 20.57Z" fill="#880D1E"/>
<path d="M141.405 23.12C139.925 23.12 138.755 22.74 137.895 21.98C137.035 21.22 136.605 20.02 136.605 18.38C136.605 17.02 136.885 15.51 137.445 13.85C138.005 12.19 138.905 10.76 140.145 9.56C141.385 8.34 142.945 7.73 144.825 7.73C147.385 7.73 148.665 9.34 148.665 12.56C148.665 14.56 148.355 16.37 147.735 17.99C147.115 19.59 146.245 20.85 145.125 21.77C144.025 22.67 142.785 23.12 141.405 23.12ZM142.605 20.42C143.285 20.42 143.895 19.96 144.435 19.04C144.995 18.1 145.425 16.94 145.725 15.56C146.045 14.16 146.205 12.84 146.205 11.6C146.205 10.9 146.125 10.39 145.965 10.07C145.805 9.73 145.505 9.56 145.065 9.56C144.405 9.56 143.765 10.04 143.145 11C142.525 11.96 142.025 13.11 141.645 14.45C141.265 15.79 141.075 16.97 141.075 17.99C141.075 18.95 141.185 19.6 141.405 19.94C141.625 20.26 142.025 20.42 142.605 20.42Z" fill="#880D1E"/>
</svg>
