<svg width="1392" height="221" viewBox="0 0 1392 221" fill="none" xmlns="http://www.w3.org/2000/svg">
<path d="M33.12 152.68C23.04 152.68 15.1067 149.6 9.31999 143.44C3.34665 137.093 0.359985 129.44 0.359985 120.48C0.359985 114.133 1.85332 109.093 4.83999 105.36C7.82665 101.44 11.9333 99.48 17.16 99.48C21.64 99.48 25.28 100.88 28.08 103.68C30.88 106.48 32.28 109.84 32.28 113.76C32.28 118.24 31.16 121.693 28.92 124.12C26.68 126.36 24.0667 127.293 21.08 126.92C21.08 134.013 24.72 137.56 32 137.56C37.04 137.56 41.24 135.6 44.6 131.68C47.96 127.573 50.8533 121.507 53.28 113.48C55.7067 105.453 58.2267 94.44 60.84 80.44C64.3867 61.5867 68.4933 47.12 73.16 37.04C78.0133 26.96 83.52 20.1467 89.68 16.6C96.0267 12.8667 103.773 11 112.92 11H154.08L139.24 80.44C137.373 88.4667 135.787 95.4667 134.48 101.44C133.173 107.413 132.52 111.52 132.52 113.76C132.52 121.6 136.253 125.52 143.72 125.52C148.947 125.52 153.147 123.747 156.32 120.2C159.493 116.653 163.133 110.213 167.24 100.88H179C167.24 135.413 149.6 152.68 126.08 152.68C115.813 152.68 107.88 149.787 102.28 144C96.68 138.213 93.88 131.213 93.88 123C93.88 116.467 95.9333 103.773 100.04 84.92L113.2 25.28C106.107 25.28 100.32 26.7733 95.84 29.76C91.5467 32.7467 87.9067 37.7867 84.92 44.88C81.9333 51.9733 79.1333 61.96 76.52 74.84C72.4133 95.9333 68.8667 111.52 65.88 121.6C63.08 131.493 59.16 139.147 54.12 144.56C49.08 149.973 42.08 152.68 33.12 152.68Z" fill="#880D1E"/>
<path d="M207.173 152.68C193.359 152.68 182.626 149.133 174.973 142.04C167.319 134.76 163.493 123.467 163.493 108.16C163.493 95.28 166.013 81.0933 171.053 65.6C176.093 50.1067 184.306 36.76 195.693 25.56C207.079 14.1733 221.546 8.48001 239.093 8.48001C259.626 8.48001 269.893 17.44 269.893 35.36C269.893 45.8133 266.906 55.4267 260.933 64.2C254.959 72.9733 247.026 80.0667 237.133 85.48C227.239 90.7067 216.693 93.6933 205.493 94.44C205.119 100.04 204.933 103.773 204.933 105.64C204.933 114.787 206.519 121.04 209.693 124.4C212.866 127.573 217.999 129.16 225.093 129.16C235.173 129.16 243.759 126.827 250.853 122.16C258.133 117.493 266.066 110.4 274.653 100.88H284.173C263.453 135.413 237.786 152.68 207.173 152.68ZM207.733 81C214.639 80.6267 221.173 78.2 227.333 73.72C233.679 69.24 238.719 63.5467 242.453 56.64C246.373 49.7333 248.333 42.4533 248.333 34.8C248.333 27.1467 245.999 23.32 241.333 23.32C234.613 23.32 227.986 29.2 221.453 40.96C215.106 52.72 210.533 66.0667 207.733 81Z" fill="#880D1E"/>
<path d="M314.634 152.68C300.82 152.68 290.087 149.133 282.434 142.04C274.78 134.76 270.954 123.467 270.954 108.16C270.954 95.28 273.474 81.0933 278.514 65.6C283.74 50.1067 291.954 36.76 303.154 25.56C314.54 14.1733 328.914 8.48001 346.274 8.48001C357.474 8.48001 365.407 10.9067 370.074 15.76C374.927 20.6133 377.354 26.7733 377.354 34.24C377.354 40.7733 375.954 45.8133 373.154 49.36C370.354 52.9067 366.807 54.68 362.514 54.68C359.34 54.68 356.074 53.56 352.714 51.32C354.954 45.16 356.074 39.6533 356.074 34.8C356.074 31.2533 355.42 28.4533 354.114 26.4C352.807 24.3467 350.847 23.32 348.234 23.32C342.634 23.32 337.034 27.8933 331.434 37.04C325.834 46.1867 321.26 57.2933 317.714 70.36C314.167 83.4267 312.394 95.1867 312.394 105.64C312.394 114.787 313.98 121.04 317.154 124.4C320.327 127.573 325.46 129.16 332.554 129.16C342.634 129.16 351.22 126.827 358.314 122.16C365.594 117.493 373.527 110.4 382.114 100.88H391.634C370.914 135.413 345.247 152.68 314.634 152.68Z" fill="#880D1E"/>
<path d="M483.695 152.68C473.055 152.68 464.841 149.88 459.055 144.28C453.455 138.493 450.655 131.4 450.655 123C450.655 117.587 452.801 104.52 457.095 83.8H426.015L411.735 151H371.415L401.095 11H441.415L429.375 67H460.735L473.335 11H510.855L496.015 80.44C494.148 88.4667 492.561 95.4667 491.255 101.44C489.948 107.413 489.295 111.52 489.295 113.76C489.295 121.6 493.028 125.52 500.495 125.52C505.721 125.52 509.921 123.747 513.095 120.2C516.268 116.653 519.908 110.213 524.015 100.88H535.775C524.015 135.413 506.655 152.68 483.695 152.68Z" fill="#880D1E"/>
<path d="M564.849 152.12C551.035 152.12 540.115 148.573 532.089 141.48C524.062 134.387 520.049 123.187 520.049 107.88C520.049 95.1867 522.662 81.0933 527.889 65.6C533.115 50.1067 541.515 36.76 553.089 25.56C564.662 14.1733 579.222 8.48001 596.769 8.48001C620.662 8.48001 632.609 23.4133 632.609 53.28V53.56C633.169 53.7467 634.195 53.84 635.689 53.84C641.849 53.84 648.942 52.2533 656.969 49.08C664.995 45.72 672.275 41.7067 678.809 37.04L681.329 44.6C675.915 50.3867 668.822 55.3333 660.049 59.44C651.462 63.36 642.035 66.16 631.769 67.84C630.275 84.8267 626.449 99.6667 620.289 112.36C614.129 125.053 606.195 134.853 596.489 141.76C586.782 148.667 576.235 152.12 564.849 152.12ZM576.049 126.92C580.529 126.92 585.009 124.4 589.489 119.36C593.969 114.133 597.889 107.133 601.249 98.36C604.609 89.4 607.035 79.5067 608.529 68.68C603.489 67.56 600.969 63.64 600.969 56.92C600.969 49.2667 603.862 44.2267 609.649 41.8C609.275 35.64 608.342 31.44 606.849 29.2C605.355 26.7733 602.742 25.56 599.009 25.56C592.849 25.56 586.875 30.04 581.089 39C575.302 47.96 570.635 58.6933 567.089 71.2C563.542 83.7067 561.769 94.72 561.769 104.24C561.769 113.2 562.795 119.267 564.849 122.44C566.902 125.427 570.635 126.92 576.049 126.92Z" fill="#880D1E"/>
<path d="M686.496 152.68C672.869 152.68 662.229 149.133 654.576 142.04C646.922 134.76 643.096 123.467 643.096 108.16C643.096 95.28 645.616 81.0933 650.656 65.6C655.696 50.1067 663.909 36.76 675.296 25.56C686.682 14.1733 701.149 8.48001 718.696 8.48001C739.229 8.48001 749.496 17.44 749.496 35.36C749.496 45.8133 746.509 55.4267 740.536 64.2C734.562 72.9733 726.629 80.0667 716.736 85.48C706.842 90.7067 696.296 93.6933 685.096 94.44C684.722 98.5467 684.536 101.347 684.536 102.84C684.536 118.333 690.322 126.08 701.896 126.08C707.122 126.08 712.722 124.68 718.696 121.88C724.669 119.08 730.082 115.533 734.936 111.24C729.896 138.867 713.749 152.68 686.496 152.68ZM687.056 81C694.149 80.8133 700.776 78.48 706.936 74C713.282 69.52 718.322 63.8267 722.056 56.92C725.976 49.8267 727.936 42.4533 727.936 34.8C727.936 27.1467 725.602 23.32 720.936 23.32C714.402 23.32 707.869 29.2933 701.336 41.24C694.989 53 690.229 66.2533 687.056 81Z" fill="#880D1E"/>
<path d="M952.218 221C943.258 221 935.791 218.667 929.818 214C923.844 209.333 920.858 202.613 920.858 193.84C920.858 175.733 935.511 162.013 964.818 152.68C964.258 132.893 957.538 123 944.658 123H935.978L939.618 106.2H947.738C954.271 106.2 960.151 104.053 965.378 99.76C970.604 95.4667 974.711 89.68 977.698 82.4C980.684 74.9333 982.178 66.8133 982.178 58.04C982.178 51.5067 980.964 45.9067 978.538 41.24C976.111 36.3867 972.004 33.96 966.218 33.96C960.804 33.96 955.484 35.8267 950.258 39.56C945.218 43.1067 938.591 48.8 930.378 56.64C922.164 64.2933 918.151 68.0267 918.338 67.84H918.058C916.564 84.8267 912.738 99.6667 906.578 112.36C900.418 125.053 892.484 134.853 882.778 141.76C873.071 148.667 862.524 152.12 851.138 152.12C837.324 152.12 826.404 148.573 818.378 141.48C810.351 134.387 806.338 123.187 806.338 107.88C806.338 95.1867 808.951 81.0933 814.178 65.6C819.404 50.1067 827.804 36.76 839.378 25.56C850.951 14.1733 865.511 8.48001 883.058 8.48001C906.391 8.48001 918.338 22.9467 918.898 51.88C919.084 51.6933 921.138 49.36 925.058 44.88C932.338 36.48 938.498 29.9467 943.538 25.28C948.578 20.4267 954.364 16.4133 960.898 13.24C967.431 10.0667 974.804 8.48001 983.018 8.48001C995.151 8.48001 1005.04 12.4933 1012.7 20.52C1020.54 28.36 1024.46 39.1867 1024.46 53C1024.46 64.2 1021.75 74.3733 1016.34 83.52C1011.11 92.48 1005.04 99.76 998.138 105.36C991.231 110.773 985.538 113.947 981.058 114.88C985.911 116.56 990.484 119.92 994.778 124.96C999.258 130 1002.34 135.973 1004.02 142.88C1014.66 139.707 1022.96 135.133 1028.94 129.16C1035.1 123.187 1040.32 113.76 1044.62 100.88H1056.38C1051.34 117.867 1044.34 130.28 1035.38 138.12C1026.42 145.96 1016.34 151.28 1005.14 154.08C1004.76 174.987 999.724 191.32 990.018 203.08C980.498 215.027 967.898 221 952.218 221ZM862.338 126.92C866.818 126.92 871.298 124.4 875.778 119.36C880.258 114.133 884.178 107.133 887.538 98.36C890.898 89.4 893.324 79.5067 894.818 68.68C889.778 67.56 887.258 63.64 887.258 56.92C887.258 49.2667 890.151 44.2267 895.938 41.8C895.564 35.64 894.631 31.44 893.138 29.2C891.644 26.7733 889.031 25.56 885.298 25.56C879.138 25.56 873.164 30.04 867.378 39C861.591 47.96 856.924 58.6933 853.378 71.2C849.831 83.7067 848.058 94.72 848.058 104.24C848.058 113.2 849.084 119.267 851.138 122.44C853.191 125.427 856.924 126.92 862.338 126.92ZM945.778 199.16C949.698 199.16 953.431 195.893 956.978 189.36C960.524 182.827 962.858 175.08 963.978 166.12C945.498 172.467 936.258 180.4 936.258 189.92C936.258 192.72 937.004 194.96 938.498 196.64C940.178 198.32 942.604 199.16 945.778 199.16Z" fill="#880D1E"/>
<path d="M1084.63 152.68C1070.82 152.68 1060.09 149.133 1052.43 142.04C1044.78 134.76 1040.95 123.467 1040.95 108.16C1040.95 95.28 1043.47 81.0933 1048.51 65.6C1053.55 50.1067 1061.77 36.76 1073.15 25.56C1084.54 14.1733 1099.01 8.48001 1116.55 8.48001C1137.09 8.48001 1147.35 17.44 1147.35 35.36C1147.35 45.8133 1144.37 55.4267 1138.39 64.2C1132.42 72.9733 1124.49 80.0667 1114.59 85.48C1104.7 90.7067 1094.15 93.6933 1082.95 94.44C1082.58 100.04 1082.39 103.773 1082.39 105.64C1082.39 114.787 1083.98 121.04 1087.15 124.4C1090.33 127.573 1095.46 129.16 1102.55 129.16C1112.63 129.16 1121.22 126.827 1128.31 122.16C1135.59 117.493 1143.53 110.4 1152.11 100.88H1161.63C1140.91 135.413 1115.25 152.68 1084.63 152.68ZM1085.19 81C1092.1 80.6267 1098.63 78.2 1104.79 73.72C1111.14 69.24 1116.18 63.5467 1119.91 56.64C1123.83 49.7333 1125.79 42.4533 1125.79 34.8C1125.79 27.1467 1123.46 23.32 1118.79 23.32C1112.07 23.32 1105.45 29.2 1098.91 40.96C1092.57 52.72 1087.99 66.0667 1085.19 81Z" fill="#880D1E"/>
<path d="M1173.33 0.640015H1213.65L1209.17 21.64C1218.51 13.6133 1229.43 9.60002 1241.93 9.60002C1252.39 9.60002 1260.69 13.0533 1266.85 19.96C1273.01 26.8667 1276.09 38.16 1276.09 53.84C1276.09 68.5867 1273.95 83.52 1269.65 98.64C1265.36 113.573 1258.08 126.36 1247.81 137C1237.55 147.453 1224.01 152.68 1207.21 152.68C1195.27 152.68 1187.33 149.32 1183.41 142.6L1168.85 210.92L1126.57 221L1173.33 0.640015ZM1198.53 128.32C1207.49 128.32 1214.87 124.12 1220.65 115.72C1226.63 107.32 1230.92 97.3333 1233.53 85.76C1236.33 74 1237.73 63.08 1237.73 53C1237.73 37.5067 1233.07 29.76 1223.73 29.76C1220.37 29.76 1216.92 30.9733 1213.37 33.4C1210.01 35.8267 1207.03 39.1867 1204.41 43.48L1187.89 121.88C1189.39 126.173 1192.93 128.32 1198.53 128.32Z" fill="#880D1E"/>
<path d="M1323.91 152.12C1310.1 152.12 1299.18 148.573 1291.15 141.48C1283.12 134.387 1279.11 123.187 1279.11 107.88C1279.11 95.1867 1281.72 81.0933 1286.95 65.6C1292.18 50.1067 1300.58 36.76 1312.15 25.56C1323.72 14.1733 1338.28 8.48001 1355.83 8.48001C1379.72 8.48001 1391.67 23.5067 1391.67 53.56C1391.67 72.2267 1388.78 89.12 1382.99 104.24C1377.2 119.173 1369.08 130.933 1358.63 139.52C1348.36 147.92 1336.79 152.12 1323.91 152.12ZM1335.11 126.92C1341.46 126.92 1347.15 122.627 1352.19 114.04C1357.42 105.267 1361.43 94.44 1364.23 81.56C1367.22 68.4933 1368.71 56.1733 1368.71 44.6C1368.71 38.0667 1367.96 33.3067 1366.47 30.32C1364.98 27.1467 1362.18 25.56 1358.07 25.56C1351.91 25.56 1345.94 30.04 1340.15 39C1334.36 47.96 1329.7 58.6933 1326.15 71.2C1322.6 83.7067 1320.83 94.72 1320.83 104.24C1320.83 113.2 1321.86 119.267 1323.91 122.44C1325.96 125.427 1329.7 126.92 1335.11 126.92Z" fill="#880D1E"/>
</svg>
